/* XPM */
static char *_0bef80fdd474bc989a129cf59506d91hxfsaOvvIcYKn8id[] = {
/* columns rows colors chars-per-pixel */
"16 16 7 1 ",
"  c #B53E30",
". c #BE492F",
"X c #A54633",
"o c #BF4830",
"O c #B9704F",
"+ c #D77643",
"@ c #C28569",
/* pixels */
"oooo@oooooooOooo",
"oooX@ooXoOooOooX",
"ooXo@OoOooXo@oOo",
"@@++@@+++@@+++@@",
"@OOooooo@ oooooo",
"@Ooooo o@ooooooo",
"@oo oooX+XXXoOoo",
"@@@@++@+++@@@@@@",
"oooo@XooOOo @ooo",
"oooo@.oooooo@ooo",
"oOo @ooooooo@ oo",
"+++@@++++@+@@@@@",
"@XXoooOo@ooooooo",
"@XoooXoo@ ooooXo",
"@XXooooo@Xoooooo",
"@+@@+@+@@@@@@@@@"
};
